<?xml version="1.0" encoding="UTF-8" standalone="no"?>
<svg
   version="1.0"
   width="23.999998pt"
   height="23.999998pt"
   viewBox="0 0 23.999998 23.999998"
   preserveAspectRatio="xMidYMid meet"
   id="svg6"
   sodipodi:docname="tracking.svg"
   inkscape:version="1.1.1 (3bf5ae0d25, 2021-09-20)"
   xmlns:inkscape="http://www.inkscape.org/namespaces/inkscape"
   xmlns:sodipodi="http://sodipodi.sourceforge.net/DTD/sodipodi-0.dtd"
   xmlns="http://www.w3.org/2000/svg"
   xmlns:svg="http://www.w3.org/2000/svg">
  <defs
     id="defs10" />
  <sodipodi:namedview
     id="namedview8"
     pagecolor="#ffffff"
     bordercolor="#666666"
     borderopacity="1.0"
     inkscape:pageshadow="2"
     inkscape:pageopacity="0.0"
     inkscape:pagecheckerboard="0"
     inkscape:document-units="pt"
     showgrid="false"
     inkscape:zoom="7.9301471"
     inkscape:cx="-22.256838"
     inkscape:cy="3.0264256"
     inkscape:window-width="1920"
     inkscape:window-height="1122"
     inkscape:window-x="-8"
     inkscape:window-y="-8"
     inkscape:window-maximized="1"
     inkscape:current-layer="g6427" />
  <g
     id="g6427"
     transform="matrix(-0.03747785,0,0,-0.04067145,23.985821,23.996152)"
     style="display:inline"
     inkscape:groupmode="layer">
    <rect
       style="display:inline;opacity:0;fill:#999999;fill-rule:evenodd;stroke-width:19.2101"
       id="rect844"
       width="637.85474"
       height="585.44379"
       x="-637.47638"
       y="-585.34918"
       transform="scale(-1)"
       ry="0.00057761773" />
    <path
       d="M 305.88953,572.40061 C 244.01724,358.10313 213.08109,261.82455 205.86266,253.54252 c -5.15603,-5.17627 -9.28085,-19.66982 -9.28085,-32.09286 0,-44.51591 -90.74603,-38.30438 -126.838207,9.31728 -7.218434,9.31728 -23.717713,17.59931 -38.154582,19.66982 L 5.8088993,253.54252 2.7152853,126.20633 -0.3783296,-0.09460326 H 320.3264 639.99993 V 97.21923 c 0,93.17282 -1.03121,98.34909 -27.84254,119.05416 -15.46807,12.42304 -35.06096,19.66982 -45.37301,16.56406 -9.28085,-3.10576 -20.6241,-2.07051 -23.71772,4.14101 -7.21843,11.38779 -49.49783,2.07051 -58.77868,-12.42304 -4.12482,-6.21152 -17.53048,-6.21152 -36.09217,0 -27.84253,9.31728 -31.96735,17.59931 -62.9035,149.07651 -42.2794,179.09886 -53.62265,216.36799 -64.96591,216.36799 -5.15602,0 -11.34325,-8.28203 -14.43687,-17.59931 z M 275.98459,344.64483 c -3.09361,-10.35253 -5.15602,-4.14101 -5.15602,12.42304 0,17.59931 2.06241,24.84609 5.15602,18.63457 2.06241,-7.24678 2.06241,-21.74033 0,-31.05761 z m 69.09073,6.21152 c 10.31205,-53.83318 7.21843,-81.78503 -9.28084,-81.78503 -8.24964,0 -15.46808,5.17627 -15.46808,11.38779 0,6.21152 -7.21843,8.28203 -16.49928,5.17627 -14.43686,-5.17627 -16.49927,-1.03526 -10.31205,32.09286 3.09362,21.74032 6.18723,45.55115 6.18723,52.79793 0,6.21152 8.24964,12.42304 19.5929,12.42304 13.40566,0 20.6241,-10.35253 25.78012,-32.09286 z m 40.21699,-80.74978 c -7.21843,-9.31728 -11.34325,6.21153 -16.49928,61.07996 l -6.18723,56.93895 13.40567,-56.93895 c 7.21843,-31.0576 11.34325,-59.00945 9.28084,-61.07996 z m -116.52615,19.66982 c 0,-25.88134 -4.12482,-31.0576 -22.68651,-31.0576 -21.6553,1.03525 -21.6553,2.0705 -5.15603,11.38778 9.28085,5.17627 17.53049,19.66982 17.53049,30.02236 0,11.38779 2.06241,20.70507 5.15602,20.70507 3.09362,0 5.15603,-13.4583 5.15603,-31.05761 z M 402.8228,248.36625 c 0,-5.17627 -4.12482,-10.35254 -10.31205,-10.35254 -5.15603,0 -10.31205,5.17627 -10.31205,10.35254 0,6.21152 5.15602,10.35254 10.31205,10.35254 6.18723,0 10.31205,-4.14102 10.31205,-10.35254 z m -41.2482,-63.15047 c 0,-11.38779 -4.12482,-18.63456 -10.31205,-14.49355 -5.15602,3.10576 -7.21843,12.42305 -3.09361,20.70507 7.21843,21.74033 13.40566,19.66982 13.40566,-6.21152 z"
       id="path2"
       style="display:inline;opacity:1;fill:#999999;fill-opacity:1;stroke-width:1.02454;stroke-miterlimit:4;stroke-dasharray:none" />
  </g>
</svg>
