<?xml version="1.0" standalone="no"?>
<!DOCTYPE svg PUBLIC "-//W3C//DTD SVG 20010904//EN"
 "http://www.w3.org/TR/2001/REC-SVG-20010904/DTD/svg10.dtd">
<svg version="1.0" xmlns="http://www.w3.org/2000/svg"
 width="66.000000pt" height="68.000000pt" viewBox="0 0 66.000000 68.000000"
 preserveAspectRatio="xMidYMid meet">

<g transform="translate(0.000000,68.000000) scale(0.100000,-0.100000)"
fill="#000000" stroke="none">
<path d="M316 573 c-60 -207 -90 -300 -97 -308 -5 -5 -9 -19 -9 -31 0 -43 -88
-37 -123 9 -7 9 -23 17 -37 19 l-25 3 -3 -123 -3 -122 311 0 310 0 0 94 c0 90
-1 95 -27 115 -15 12 -34 19 -44 16 -9 -3 -20 -2 -23 4 -7 11 -48 2 -57 -12
-4 -6 -17 -6 -35 0 -27 9 -31 17 -61 144 -41 173 -52 209 -63 209 -5 0 -11 -8
-14 -17z m-29 -220 c-3 -10 -5 -4 -5 12 0 17 2 24 5 18 2 -7 2 -21 0 -30z m67
6 c10 -52 7 -79 -9 -79 -8 0 -15 5 -15 11 0 6 -7 8 -16 5 -14 -5 -16 -1 -10
31 3 21 6 44 6 51 0 6 8 12 19 12 13 0 20 -10 25 -31z m39 -78 c-7 -9 -11 6
-16 59 l-6 55 13 -55 c7 -30 11 -57 9 -59z m-113 19 c0 -25 -4 -30 -22 -30
-21 1 -21 2 -5 11 9 5 17 19 17 29 0 11 2 20 5 20 3 0 5 -13 5 -30z m130 -40
c0 -5 -4 -10 -10 -10 -5 0 -10 5 -10 10 0 6 5 10 10 10 6 0 10 -4 10 -10z
m-40 -61 c0 -11 -4 -18 -10 -14 -5 3 -7 12 -3 20 7 21 13 19 13 -6z"/>
</g>
</svg>
